<svg xmlns="http://www.w3.org/2000/svg" viewBox="0 0 200 200">
  <!-- Nimbus-style mark: portrait frame, glyph + bar on top, outlined "A" hanging below (like the Nimbus bolt) -->
  <rect width="200" height="200" fill="#fff"/>
  <path d="M37.3 187V13h125v174H37.3zm7-7h111V20H44.3v160z" fill="#010101"/>
  <g stroke="#010101" stroke-width="7" fill="none" stroke-linecap="butt" stroke-linejoin="miter">
    <path d="M100 32v10"/>
    <path d="M74 45.5h52"/>
    <path d="M85 52c6 11 19 19.5 36 23"/>
    <path d="M115 52c-6 11-19 19.5-36 23"/>
  </g>
  <rect x="75.4" y="83" width="49.2" height="7" fill="#010101"/>
  <path d="M92 100h16l24.5 66h-14l-5.3-14.5H86.8L81.5 166h-14L92 100zm-1.2 40.5h18.4L100 114.5l-9.2 26z" fill="none" stroke="#010101" stroke-width="6" stroke-linejoin="miter"/>
</svg>
